<?xml version="1.0" standalone="no"?>
<svg xmlns:xlink="http://www.w3.org/1999/xlink" id="wave" style="transform:rotate(0deg); transition: 0.3s" viewBox="0 0 1440 490" version="1.1" xmlns="http://www.w3.org/2000/svg"><defs><linearGradient id="sw-gradient-0" x1="0" x2="0" y1="1" y2="0"><stop stop-color="rgba(255, 255, 255, 1)" offset="0%"/><stop stop-color="rgba(9.448, 88.641, 255, 1)" offset="100%"/></linearGradient></defs><path style="transform:translate(0, 0px); opacity:1" fill="url(#sw-gradient-0)" d="M0,245L120,261.3C240,278,480,310,720,285.8C960,261,1200,180,1440,138.8C1680,98,1920,98,2160,155.2C2400,212,2640,327,2880,343C3120,359,3360,278,3600,261.3C3840,245,4080,294,4320,310.3C4560,327,4800,310,5040,318.5C5280,327,5520,359,5760,375.7C6000,392,6240,392,6480,375.7C6720,359,6960,327,7200,285.8C7440,245,7680,196,7920,196C8160,196,8400,245,8640,253.2C8880,261,9120,229,9360,196C9600,163,9840,131,10080,163.3C10320,196,10560,294,10800,277.7C11040,261,11280,131,11520,89.8C11760,49,12000,98,12240,138.8C12480,180,12720,212,12960,228.7C13200,245,13440,245,13680,277.7C13920,310,14160,376,14400,343C14640,310,14880,180,15120,179.7C15360,180,15600,310,15840,318.5C16080,327,16320,212,16560,196C16800,180,17040,261,17160,302.2L17280,343L17280,490L17160,490C17040,490,16800,490,16560,490C16320,490,16080,490,15840,490C15600,490,15360,490,15120,490C14880,490,14640,490,14400,490C14160,490,13920,490,13680,490C13440,490,13200,490,12960,490C12720,490,12480,490,12240,490C12000,490,11760,490,11520,490C11280,490,11040,490,10800,490C10560,490,10320,490,10080,490C9840,490,9600,490,9360,490C9120,490,8880,490,8640,490C8400,490,8160,490,7920,490C7680,490,7440,490,7200,490C6960,490,6720,490,6480,490C6240,490,6000,490,5760,490C5520,490,5280,490,5040,490C4800,490,4560,490,4320,490C4080,490,3840,490,3600,490C3360,490,3120,490,2880,490C2640,490,2400,490,2160,490C1920,490,1680,490,1440,490C1200,490,960,490,720,490C480,490,240,490,120,490L0,490Z"/></svg>